<svg width="20" height="14" viewBox="0 0 20 14" fill="none" xmlns="http://www.w3.org/2000/svg">
<g clip-path="url(#clip0_1_237)">
<path fill-rule="evenodd" clip-rule="evenodd" d="M15.5747 7.26513C15.8078 7.09907 15.8078 6.82983 15.5747 6.66377L12.3905 4.39592C12.1574 4.22986 11.7794 4.22986 11.5462 4.39592C11.3131 4.56198 11.3131 4.83121 11.5462 4.99727L13.7112 6.53923L5.60009 6.53923C5.27037 6.53923 5.00307 6.72961 5.00307 6.96445C5.00307 7.1993 5.27037 7.38967 5.60009 7.38967L13.7112 7.38967L11.5462 8.93163C11.3131 9.09769 11.3131 9.36693 11.5462 9.53299C11.7794 9.69905 12.1574 9.69905 12.3905 9.53299L15.5747 7.26513Z" fill="#1463FF"/>
</g>
<defs>
<clipPath id="clip0_1_237">
<rect width="13.6071" height="19.1048" fill="white" transform="matrix(0 -1 -1 0 19.9287 13.768)"/>
</clipPath>
</defs>
</svg>
