<svg width="16" height="16" viewBox="0 0 16 16" fill="none" xmlns="http://www.w3.org/2000/svg">
<g opacity="0.4">
<path d="M3.33332 7.33334C3.33332 10.2789 6.33332 13.3333 7.99999 13.3333C9.66666 13.3333 12.6667 10.2789 12.6667 7.33334C12.6667 4.38782 10.5773 2.66667 7.99999 2.66667C5.42266 2.66667 3.33332 4.38782 3.33332 7.33334Z" fill="#1463FF"/>
</g>
<path fill-rule="evenodd" clip-rule="evenodd" d="M13.7415 3.55462C13.4955 3.68016 13.3979 3.98132 13.5235 4.22728C13.9313 5.02621 14.1667 5.9807 14.1667 7.08329C14.1667 7.77213 14.0308 8.47551 13.7888 9.16841C13.6977 9.42911 13.8352 9.71427 14.0959 9.80532C14.3566 9.89638 14.6418 9.75886 14.7329 9.49816C15.0053 8.71812 15.1667 7.90278 15.1667 7.08329C15.1667 5.83578 14.8996 4.72359 14.4141 3.77263C14.2886 3.52668 13.9874 3.42907 13.7415 3.55462ZM2.2585 3.55462C2.01255 3.42907 1.71139 3.52668 1.58584 3.77263C1.10043 4.72359 0.833323 5.83578 0.833323 7.08329C0.833323 7.90278 0.994674 8.71812 1.26713 9.49816C1.35819 9.75886 1.64334 9.89638 1.90404 9.80532C2.16473 9.71427 2.30225 9.42911 2.2112 9.16841C1.96918 8.47551 1.83332 7.77213 1.83332 7.08329C1.83332 5.9807 2.0687 5.02621 2.47652 4.22728C2.60206 3.98132 2.50446 3.68016 2.2585 3.55462Z" fill="#1463FF"/>
<ellipse cx="2" cy="2" rx="2" ry="2" transform="matrix(-1 0 0 1 10 5.33334)" fill="#1463FF"/>
</svg>
