<svg width="60" height="60" viewBox="0 0 60 60" fill="none" xmlns="http://www.w3.org/2000/svg">
<g style="mix-blend-mode:luminosity">
<path fill-rule="evenodd" clip-rule="evenodd" d="M52.896 31.208C52.896 34.596 52.16 37.812 50.84 40.704C50.832 40.72 50.828 40.736 50.82 40.748C50.268 41.952 49.612 43.104 48.864 44.184C48.104 45.284 47.252 46.316 46.316 47.268C45.944 47.648 45.56 48.012 45.16 48.364C44.612 48.848 44.04 49.308 43.448 49.74C41.596 51.088 39.532 52.164 37.316 52.912C36.34 53.24 35.336 53.504 34.304 53.7C32.908 53.964 31.468 54.104 29.996 54.104C23.904 54.104 18.364 51.724 14.264 47.84C10.844 44.604 8.42 40.32 7.504 35.504C7.256 34.2 7.12 32.86 7.104 31.488C7.104 31.396 7.104 31.3 7.104 31.208C7.104 27.448 8.012 23.9 9.616 20.768C9.764 20.48 9.916 20.196 10.076 19.912C11.616 17.2 13.696 14.832 16.168 12.956C17.592 11.872 19.152 10.956 20.808 10.228C23.62 8.992 26.728 8.308 30 8.308C34.156 8.308 38.052 9.416 41.412 11.352C42.336 11.884 43.22 12.48 44.056 13.132C45.508 14.264 46.824 15.568 47.964 17.008C48.168 17.264 48.364 17.524 48.556 17.792C49.148 18.608 49.684 19.464 50.164 20.356C51.908 23.588 52.896 27.284 52.896 31.208Z" fill="#DBF2FF"/>
<path fill-rule="evenodd" clip-rule="evenodd" d="M43.648 51.752C43.596 51.776 43.544 51.8 43.488 51.824C43.436 51.848 43.38 51.872 43.328 51.896C43.276 51.92 43.22 51.944 43.168 51.964C43.12 51.984 43.068 52.004 43.02 52.024C42.9 52.072 42.776 52.12 42.656 52.168C42.612 52.184 42.568 52.2 42.52 52.216C42.464 52.236 42.412 52.256 42.356 52.272C42.308 52.288 42.256 52.304 42.204 52.324C42.188 52.328 42.176 52.332 42.16 52.336C42.116 52.352 42.068 52.364 42.024 52.38C41.968 52.396 41.912 52.412 41.86 52.432C41.804 52.448 41.748 52.464 41.692 52.48C41.648 52.492 41.604 52.504 41.556 52.516C41.536 52.52 41.516 52.528 41.492 52.532C41.46 52.54 41.424 52.548 41.392 52.556C41.372 52.56 41.352 52.564 41.336 52.572C41.232 52.6 41.128 52.624 41.02 52.648C40.972 52.66 40.928 52.668 40.88 52.68C40.864 52.684 40.844 52.688 40.828 52.692C40.78 52.7 40.732 52.712 40.684 52.72C40.628 52.732 40.572 52.74 40.516 52.752C40.46 52.76 40.404 52.772 40.352 52.78C40.288 52.792 40.22 52.8 40.156 52.812C40.112 52.82 40.068 52.824 40.028 52.832C39.92 52.848 39.812 52.86 39.704 52.872C39.68 52.876 39.652 52.876 39.628 52.88C39.588 52.884 39.544 52.888 39.504 52.892C39.472 52.896 39.44 52.896 39.412 52.9C39.384 52.904 39.352 52.904 39.324 52.908C39.28 52.912 39.24 52.916 39.196 52.916C39.172 52.92 39.148 52.92 39.124 52.92C39.084 52.924 39.044 52.924 39.004 52.928C38.88 52.936 38.756 52.94 38.636 52.944C38.588 52.944 38.54 52.948 38.492 52.948C38.104 52.956 37.716 52.94 37.328 52.912C36.352 53.24 35.348 53.504 34.316 53.7C32.92 53.964 31.48 54.104 30.008 54.104C23.916 54.104 18.376 51.724 14.276 47.84C10.856 44.604 8.432 40.32 7.516 35.504L7.144 31.768L7.116 31.488L6.08 21.12L9.628 20.764L14.12 20.32L15.776 20.156L15.856 20.148L18.896 19.844L24.212 19.312L39.46 17.788L40.244 17.708L40.256 17.832L41.296 28.248L41.308 28.36L41.44 29.688L41.524 30.528L42.18 37.104L42.236 37.648L42.372 39.02L43.416 49.476L43.444 49.748L43.648 51.752Z" fill="#4FB4F3"/>
<path fill-rule="evenodd" clip-rule="evenodd" d="M50.34 17.14L50.3 17.86L50.164 20.356L49.388 34.584L49.324 35.764L49.128 39.384L48.868 44.184L47.448 47.532L48.628 48.6L48.604 49.064L48.408 52.676L46.02 50.288C45.972 50.324 45.924 50.364 45.876 50.4C45.832 50.432 45.788 50.468 45.744 50.5C45.744 50.504 45.74 50.504 45.74 50.504C45.692 50.54 45.648 50.572 45.6 50.604C45.544 50.644 45.484 50.684 45.428 50.724C45.4 50.744 45.372 50.764 45.344 50.784C45.164 50.908 44.98 51.024 44.792 51.14C44.728 51.176 44.668 51.216 44.604 51.252C44.556 51.28 44.504 51.308 44.456 51.336C44.432 51.352 44.404 51.364 44.38 51.38C44.344 51.4 44.308 51.42 44.272 51.44C44.228 51.464 44.184 51.488 44.136 51.512C44.028 51.568 43.92 51.624 43.808 51.68C43.76 51.704 43.708 51.728 43.66 51.752H43.656C43.604 51.776 43.552 51.8 43.496 51.824C43.444 51.848 43.388 51.872 43.336 51.896C43.284 51.92 43.228 51.944 43.176 51.964C43.128 51.984 43.076 52.004 43.028 52.024C42.908 52.072 42.784 52.12 42.664 52.168C42.62 52.184 42.576 52.2 42.528 52.216C42.472 52.236 42.42 52.256 42.364 52.272C42.316 52.288 42.264 52.304 42.212 52.324C42.196 52.328 42.184 52.332 42.168 52.336C42.124 52.352 42.076 52.364 42.032 52.38C41.976 52.396 41.92 52.412 41.868 52.432C41.812 52.448 41.756 52.464 41.7 52.48C41.656 52.492 41.612 52.504 41.564 52.516C41.544 52.52 41.524 52.528 41.5 52.532C41.468 52.54 41.432 52.548 41.4 52.556C41.38 52.56 41.36 52.564 41.344 52.572C41.24 52.6 41.136 52.624 41.028 52.648C40.98 52.66 40.936 52.668 40.888 52.68C40.872 52.684 40.852 52.688 40.836 52.692C40.788 52.7 40.74 52.712 40.692 52.72C40.636 52.732 40.58 52.74 40.524 52.752C40.468 52.76 40.412 52.772 40.36 52.78C40.296 52.792 40.228 52.8 40.164 52.812C40.12 52.82 40.076 52.824 40.036 52.832C39.928 52.848 39.82 52.86 39.712 52.872C39.688 52.876 39.66 52.876 39.636 52.88C39.596 52.884 39.552 52.888 39.512 52.892C39.48 52.896 39.448 52.896 39.42 52.9C39.392 52.904 39.36 52.904 39.332 52.908C39.288 52.912 39.248 52.916 39.204 52.916C39.18 52.92 39.156 52.92 39.132 52.92C39.092 52.924 39.052 52.924 39.012 52.928C38.888 52.936 38.764 52.94 38.644 52.944C38.596 52.944 38.548 52.948 38.5 52.948C38.112 52.956 37.724 52.94 37.336 52.912C36.36 53.24 35.356 53.504 34.324 53.7C32.928 53.964 31.488 54.104 30.016 54.104C23.924 54.104 18.384 51.724 14.284 47.84L14.416 45.412V45.396L15.204 30.968L15.792 20.152L15.836 19.34L16.056 15.268L19.088 15.432L41.528 16.656L43.896 16.784L47.98 17.008L49.58 17.096L50.34 17.14Z" fill="#ACDCFA"/>
<path fill-rule="evenodd" clip-rule="evenodd" d="M50.84 40.7041C50.736 42.9441 50.128 45.1841 48.904 47.0881C48.836 47.2001 47.368 47.2761 47.296 47.3841C49.512 49.2121 48.808 48.8321 46.816 51.0881C46.184 50.4801 46.124 50.0441 45.336 50.7841C42.1 53.2761 37.988 52.5761 34.308 53.7001C28.028 51.7201 24.3 44.2921 26.38 38.1441C30.148 25.2281 49.82 27.2441 50.84 40.7041Z" fill="#4FB4F3"/>
<path fill-rule="evenodd" clip-rule="evenodd" d="M41.312 28.3602L36.392 28.8482L32.636 29.2242L21.984 30.2882L15.232 30.9642L15.188 30.9682L14.172 31.0682L7.13201 31.7722L7.10401 31.4922L5.98801 20.3242L10.08 19.9162L15.82 19.3402L18.944 19.0282L18.984 19.0242L34.232 17.5042L40.168 16.9082L40.26 17.8322L41.304 28.2482L41.312 28.3602Z" fill="#4FB4F3"/>
<path fill-rule="evenodd" clip-rule="evenodd" d="M15.904 19.332L14.116 19.512L14.26 47.832L15.904 19.332Z" fill="#3594DC"/>
<path fill-rule="evenodd" clip-rule="evenodd" d="M50.304 17.8598L50.168 20.3558L49.392 34.5838L49.128 39.3838L48.644 39.3598L41.984 38.9958L39.66 38.8678L28.112 38.2398L25.964 38.1198L14.856 37.5158H14.828L15.188 30.9678L15.82 19.3398L16.168 12.9598L16.332 9.98779L20.808 10.2318L41.412 11.3558L44.132 11.5038L50.304 17.8598Z" fill="#ACDCFA"/>
<path d="M19.1279 14.4537L19.007 16.6704L41.4453 17.8945L41.5662 15.6778L19.1279 14.4537Z" fill="#DBF2FF"/>
<path d="M18.9448 19.0245L18.8239 21.2412L32.4195 21.9829L32.5404 19.7662L18.9448 19.0245Z" fill="#DBF2FF"/>
<path d="M18.6716 27.8849L18.5507 30.1016L40.1621 31.2803L40.2831 29.0637L18.6716 27.8849Z" fill="#DBF2FF"/>
<path d="M18.5144 33.1954L18.3934 35.4121L24.8877 35.7663L25.0086 33.5497L18.5144 33.1954Z" fill="#DBF2FF"/>
<path fill-rule="evenodd" clip-rule="evenodd" d="M52.968 55.092C52.376 55.684 51.412 55.684 50.816 55.092L48.4 52.676L45.552 49.828C45.156 49.432 45.024 48.868 45.16 48.364C45.176 48.296 45.2 48.232 45.228 48.168C45.3 47.992 45.412 47.824 45.556 47.68C45.7 47.536 45.868 47.428 46.044 47.352C46.132 47.316 46.224 47.288 46.316 47.268C46.8 47.168 47.328 47.304 47.704 47.68L48.16 48.136L48.62 48.6L52.964 52.944C53.564 53.536 53.564 54.5 52.968 55.092Z" fill="#ED3F07"/>
<path fill-rule="evenodd" clip-rule="evenodd" d="M50.824 40.5318C50.4 56.1798 27.72 57.2358 25.824 41.7198C24.564 24.3398 50.4 23.0438 50.824 40.5318Z" fill="#F2763D"/>
<path d="M38.292 50.8202C44.038 50.8202 48.696 46.1622 48.696 40.4162C48.696 34.6702 44.038 30.0122 38.292 30.0122C32.546 30.0122 27.888 34.6702 27.888 40.4162C27.888 46.1622 32.546 50.8202 38.292 50.8202Z" fill="#DBF2FF"/>
<path d="M42.24 37.644C42.236 37.456 42.22 37.276 42.184 37.1C42.056 36.404 41.708 35.796 41.132 35.268C40.408 34.608 39.444 34.268 38.232 34.268C37.084 34.268 36.164 34.584 35.464 35.204C34.956 35.652 34.592 36.24 34.376 36.972C34.188 37.604 34.62 38.252 35.272 38.328C35.788 38.388 36.276 38.068 36.42 37.572C36.548 37.14 36.732 36.804 36.984 36.564C37.324 36.248 37.748 36.092 38.252 36.092C38.78 36.092 39.224 36.264 39.588 36.616C39.944 36.96 40.124 37.36 40.124 37.816C40.124 38.056 40.068 38.28 39.952 38.484C39.888 38.596 39.788 38.724 39.652 38.868C39.5 39.032 39.308 39.216 39.072 39.424C38.568 39.868 38.224 40.208 38.028 40.44C37.748 40.78 37.544 41.116 37.42 41.448C37.252 41.88 37.164 42.396 37.164 42.992C37.164 43.408 37.504 43.748 37.92 43.748H38.444C38.848 43.748 39.18 43.432 39.2 43.028C39.216 42.704 39.248 42.452 39.292 42.284C39.348 42.076 39.432 41.892 39.552 41.732C39.684 41.552 39.968 41.272 40.4 40.888C41.116 40.252 41.596 39.708 41.84 39.264C41.888 39.176 41.932 39.088 41.972 38.996C42.144 38.6 42.232 38.176 42.232 37.724C42.24 37.696 42.24 37.672 42.24 37.644ZM38.224 44.296C37.6 44.296 37.092 44.804 37.092 45.428C37.092 46.056 37.6 46.56 38.224 46.56C38.852 46.56 39.356 46.052 39.356 45.428C39.356 44.804 38.848 44.296 38.224 44.296Z" fill="#F2763D"/>
<path fill-rule="evenodd" clip-rule="evenodd" d="M50.304 17.86L48.556 17.796L43.84 17.62L44.056 13.132L44.132 11.504L50.304 17.86Z" fill="#4FB4F3"/>
</g>
</svg>
