<svg width="83" height="19" viewBox="0 0 83 19" fill="none" xmlns="http://www.w3.org/2000/svg">
<g clip-path="url(#clip0_1_240)">
<path d="M46.8289 3.82849C46.206 3.82849 45.703 4.18749 45.703 4.63199V13.1513C45.703 13.5958 46.206 13.9548 46.8289 13.9548C47.4519 13.9548 47.9552 13.5958 47.9552 13.1513V4.62629C47.9552 4.18749 47.4519 3.82849 46.8289 3.82849Z" fill="#003960"/>
<path d="M38.675 6.35297C37.1975 6.35297 35.9278 6.75186 35.0094 7.40718V7.24194C35.0094 6.84873 34.5622 6.52962 34.0112 6.52962C33.4601 6.52962 33.0129 6.84873 33.0129 7.24194V15.3966C33.0129 15.8411 33.5239 16.2058 34.1469 16.2058C34.7699 16.2058 35.2809 15.8411 35.2809 15.3966V13.2368C36.1515 13.7839 37.3175 14.1258 38.675 14.1258C41.7579 14.1258 43.8983 12.4049 43.8983 10.2337C43.8983 8.05683 41.7337 6.35297 38.675 6.35297ZM38.3635 12.7183C36.5746 12.7183 35.1213 11.8578 35.1213 10.2394C35.1213 8.62098 36.5988 7.76051 38.3635 7.76051C40.3601 7.76051 41.6302 8.87172 41.6302 10.2394C41.6302 11.607 40.3601 12.7183 38.3635 12.7183Z" fill="#003960"/>
<path d="M66.9704 6.35297C65.453 6.35297 64.3109 6.81453 63.5761 7.49838V7.24194C63.5761 6.84873 63.1288 6.52962 62.5778 6.52962C62.0267 6.52962 61.5795 6.84873 61.5795 7.24194V13.1343C61.5795 13.5845 62.0909 13.9492 62.7216 13.9492C63.3526 13.9492 63.8637 13.5845 63.8637 13.1343V9.61824C63.8637 8.48992 64.9419 7.74912 66.4671 7.74912C68.0484 7.74912 68.9828 8.48992 68.9828 9.61824V13.1343C68.9828 13.5845 69.4939 13.9492 70.1249 13.9492C70.7559 13.9492 71.267 13.5845 71.267 13.1343V9.48148C71.2751 7.64083 69.59 6.35297 66.9704 6.35297Z" fill="#003960"/>
<path d="M81.5452 12.7297L78.3666 9.85187L81.4972 7.49838C81.8647 7.21344 81.8406 6.76894 81.4414 6.50681C81.0422 6.24468 80.4192 6.26177 80.0516 6.5467L75.5316 10.0171V4.63769C75.5316 4.19319 75.0205 3.82849 74.3976 3.82849C73.7746 3.82849 73.2635 4.19319 73.2635 4.63769V13.1457C73.2635 13.5902 73.7746 13.9548 74.3976 13.9548C75.0205 13.9548 75.5316 13.5902 75.5316 13.1457V11.607L76.6976 10.7295L79.8521 13.6528C80.2116 13.9833 80.8745 14.046 81.3456 13.7896C81.8167 13.5389 81.9047 13.0659 81.5452 12.7297Z" fill="#003960"/>
<path d="M58.3131 6.52962C57.6905 6.52962 57.1791 6.89431 57.1791 7.33881V10.8662C57.1791 11.9945 56.205 12.7354 54.6795 12.7354C53.242 12.7354 52.3076 12.0059 52.3076 10.9403V7.33881C52.3076 6.89431 51.7965 6.52962 51.1736 6.52962C50.5506 6.52962 50.0395 6.89431 50.0395 7.33881V10.9973C50.0395 12.8835 51.7246 14.1315 54.2242 14.1315C55.6778 14.1315 56.7638 13.6984 57.4509 13.0602V13.2368C57.4509 13.63 57.8981 13.9492 58.4492 13.9492C58.9999 13.9492 59.4472 13.63 59.4472 13.2368V7.33881C59.4472 6.88862 58.9361 6.52962 58.3131 6.52962Z" fill="#003960"/>
<path d="M81.2099 3.86838H80.3712C80.3154 3.86838 80.2674 3.90257 80.2674 3.94244C80.2674 3.98233 80.3154 4.01653 80.3712 4.01653H80.6669V4.68896C80.6669 4.73455 80.7227 4.77444 80.7865 4.77444C80.8503 4.77444 80.9065 4.73455 80.9065 4.68896V4.02222H81.2018C81.2576 4.02222 81.3056 3.98805 81.3056 3.94816C81.3056 3.90827 81.2657 3.86838 81.2099 3.86838Z" fill="#003960"/>
<path d="M82.7912 4.68896L82.6554 3.92536C82.6473 3.89116 82.6154 3.86838 82.5674 3.86838C82.5274 3.86838 82.5035 3.88546 82.4877 3.90827L82.0882 4.5294L81.689 3.90827C81.6729 3.88546 81.641 3.86838 81.6091 3.86838C81.5614 3.86838 81.5214 3.89116 81.5214 3.92536L81.3934 4.68327C81.3934 4.68896 81.3934 4.68896 81.3934 4.69466C81.3934 4.70035 81.3934 4.70035 81.3934 4.70607C81.4014 4.74594 81.4495 4.78014 81.5052 4.78014C81.5691 4.78014 81.6171 4.74594 81.6171 4.70607L81.689 4.24449L82.0005 4.74025C82.0163 4.76305 82.0482 4.78014 82.0882 4.78014C82.1282 4.78014 82.1601 4.76305 82.1762 4.74025L82.4877 4.24449L82.5593 4.71177C82.5674 4.75166 82.6154 4.78014 82.6712 4.78014C82.735 4.78014 82.7831 4.74596 82.7831 4.70035C82.7912 4.69466 82.7912 4.69466 82.7912 4.68896Z" fill="#003960"/>
<path d="M25.8729 7.27623C25.841 6.35875 25.1941 5.50397 24.1479 4.97399C20.9055 3.33282 17.5593 1.7942 14.1092 0.375251C13.4783 0.113116 12.6957 0.113116 12.0647 0.375251C8.6147 1.7942 5.26048 3.3271 2.01806 4.97399C0.971864 5.50397 0.32498 6.35305 0.293035 7.27623C0.26109 8.09681 0.245117 8.92312 0.245117 9.75512C0.245117 11.5787 0.316993 13.3851 0.468732 15.1802C0.588527 16.6447 2.21772 17.8186 4.27019 17.9155C6.85771 18.0408 9.47721 18.1092 12.1047 18.1263C12.3523 18.1263 12.5519 17.9838 12.5519 17.8072V14.2798C12.5519 14.1259 12.3922 13.9892 12.1845 13.9664C10.6991 13.7897 9.35742 13.2996 8.31122 12.593C7.90391 12.3138 7.53655 11.9946 7.2171 11.647C5.97924 10.3022 5.71567 8.71227 6.29868 7.33321C6.47438 6.92292 7.0414 6.65508 7.64037 6.70636C9.64491 6.87731 11.5776 7.68653 12.8075 9.03138C13.3026 9.57275 13.646 10.1597 13.8377 10.7467C14.1172 10.4731 14.4447 10.2167 14.828 9.98875C16.2016 9.17386 17.9266 8.89462 19.4919 9.12257C19.8753 9.17955 20.1548 9.4189 20.1628 9.69812C20.1867 10.7296 19.6197 11.7781 18.4937 12.5759C17.4395 13.2882 16.0978 13.784 14.6044 13.955C14.3887 13.9777 14.237 14.1145 14.237 14.2684V17.7958C14.237 17.9725 14.4367 18.1149 14.6922 18.1149C17.112 18.0921 19.5159 18.0237 21.9038 17.9098C23.9562 17.8072 25.5775 16.639 25.7052 15.1745C25.857 13.3794 25.9289 11.573 25.9289 9.7494C25.9209 8.92312 25.9049 8.09681 25.8729 7.27623Z" fill="url(#paint0_linear_1_240)"/>
</g>
<defs>
<linearGradient id="paint0_linear_1_240" x1="11.1358" y1="-2.19715" x2="13.4053" y2="27.1697" gradientUnits="userSpaceOnUse">
<stop offset="0.223" stop-color="#43E7B0"/>
<stop offset="0.9439" stop-color="#4386F5"/>
</linearGradient>
<clipPath id="clip0_1_240">
<rect width="82.5457" height="18.1429" fill="white" transform="translate(0.245117 0.17865)"/>
</clipPath>
</defs>
</svg>
