<svg width="83" height="21" viewBox="0 0 83 21" fill="none" xmlns="http://www.w3.org/2000/svg">
<g clip-path="url(#clip0_1_197)">
<path d="M46.8289 4.75687C46.206 4.75687 45.703 5.15554 45.703 5.64917V15.1101C45.703 15.6038 46.206 16.0025 46.8289 16.0025C47.4519 16.0025 47.9552 15.6038 47.9552 15.1101V5.64285C47.9552 5.15554 47.4519 4.75687 46.8289 4.75687Z" fill="#003960"/>
<path d="M38.675 7.56036C37.1975 7.56036 35.9278 8.00334 35.0094 8.7311V8.5476C35.0094 8.11092 34.5622 7.75654 34.0112 7.75654C33.4601 7.75654 33.0129 8.11092 33.0129 8.5476V17.6036C33.0129 18.0972 33.5239 18.5022 34.1469 18.5022C34.7699 18.5022 35.2809 18.0972 35.2809 17.6036V15.2051C36.1515 15.8126 37.3175 16.1923 38.675 16.1923C41.7579 16.1923 43.8983 14.2811 43.8983 11.87C43.8983 9.45255 41.7337 7.56036 38.675 7.56036ZM38.3635 14.6292C36.5746 14.6292 35.1213 13.6736 35.1213 11.8763C35.1213 10.0791 36.5988 9.12348 38.3635 9.12348C40.3601 9.12348 41.6302 10.3575 41.6302 11.8763C41.6302 13.3952 40.3601 14.6292 38.3635 14.6292Z" fill="#003960"/>
<path d="M66.9704 7.56036C65.453 7.56036 64.3109 8.07294 63.5761 8.83237V8.5476C63.5761 8.11092 63.1288 7.75654 62.5778 7.75654C62.0267 7.75654 61.5795 8.11092 61.5795 8.5476V15.0912C61.5795 15.5911 62.0909 15.9961 62.7216 15.9961C63.3526 15.9961 63.8637 15.5911 63.8637 15.0912V11.1865C63.8637 9.93351 64.9419 9.11083 66.4671 9.11083C68.0484 9.11083 68.9828 9.93351 68.9828 11.1865V15.0912C68.9828 15.5911 69.4939 15.9961 70.1249 15.9961C70.7559 15.9961 71.267 15.5911 71.267 15.0912V11.0347C71.2751 8.99057 69.59 7.56036 66.9704 7.56036Z" fill="#003960"/>
<path d="M81.5452 14.6418L78.3666 11.446L81.4972 8.83237C81.8647 8.51595 81.8406 8.02232 81.4414 7.73121C81.0422 7.44011 80.4192 7.45909 80.0516 7.77551L75.5316 11.6295V5.6555C75.5316 5.16187 75.0205 4.75687 74.3976 4.75687C73.7746 4.75687 73.2635 5.16187 73.2635 5.6555V15.1038C73.2635 15.5975 73.7746 16.0025 74.3976 16.0025C75.0205 16.0025 75.5316 15.5975 75.5316 15.1038V13.3952L76.6976 12.4206L79.8521 15.6671C80.2116 16.0341 80.8745 16.1037 81.3456 15.8189C81.8167 15.5405 81.9047 15.0152 81.5452 14.6418Z" fill="#003960"/>
<path d="M58.3131 7.75653C57.6905 7.75653 57.1791 8.16153 57.1791 8.65516V12.5724C57.1791 13.8255 56.205 14.6482 54.6795 14.6482C53.242 14.6482 52.3076 13.8381 52.3076 12.6547V8.65516C52.3076 8.16153 51.7965 7.75653 51.1736 7.75653C50.5506 7.75653 50.0395 8.16153 50.0395 8.65516V12.718C50.0395 14.8127 51.7246 16.1986 54.2242 16.1986C55.6778 16.1986 56.7638 15.7177 57.4509 15.0089V15.2051C57.4509 15.6417 57.8981 15.9961 58.4492 15.9961C58.9999 15.9961 59.4472 15.6417 59.4472 15.2051V8.65516C59.4472 8.15521 58.9361 7.75653 58.3131 7.75653Z" fill="#003960"/>
<path d="M81.2099 4.80115H80.3712C80.3154 4.80115 80.2674 4.83912 80.2674 4.8834C80.2674 4.9277 80.3154 4.96567 80.3712 4.96567H80.6669V5.71243C80.6669 5.76305 80.7227 5.80736 80.7865 5.80736C80.8503 5.80736 80.9065 5.76305 80.9065 5.71243V4.972H81.2018C81.2576 4.972 81.3056 4.93405 81.3056 4.88975C81.3056 4.84545 81.2657 4.80115 81.2099 4.80115Z" fill="#003960"/>
<path d="M82.7912 5.71243L82.6554 4.86442C82.6473 4.82645 82.6154 4.80115 82.5674 4.80115C82.5274 4.80115 82.5035 4.82012 82.4877 4.84545L82.0882 5.53523L81.689 4.84545C81.6729 4.82012 81.641 4.80115 81.6091 4.80115C81.5614 4.80115 81.5214 4.82645 81.5214 4.86442L81.3934 5.7061C81.3934 5.71243 81.3934 5.71243 81.3934 5.71875C81.3934 5.72508 81.3934 5.72508 81.3934 5.73143C81.4014 5.7757 81.4495 5.81368 81.5052 5.81368C81.5691 5.81368 81.6171 5.7757 81.6171 5.73143L81.689 5.21883L82.0005 5.76938C82.0163 5.79471 82.0482 5.81368 82.0882 5.81368C82.1282 5.81368 82.1601 5.79471 82.1762 5.76938L82.4877 5.21883L82.5593 5.73776C82.5674 5.78206 82.6154 5.81368 82.6712 5.81368C82.735 5.81368 82.7831 5.77573 82.7831 5.72508C82.7912 5.71875 82.7912 5.71875 82.7912 5.71243Z" fill="#003960"/>
<path d="M25.8729 8.58566C25.841 7.56678 25.1941 6.61752 24.1479 6.02897C20.9055 4.2064 17.5593 2.49772 14.1092 0.921944C13.4783 0.630836 12.6957 0.630836 12.0647 0.921944C8.6147 2.49772 5.26048 4.20005 2.01806 6.02897C0.971864 6.61752 0.32498 7.56045 0.293035 8.58566C0.26109 9.49694 0.245117 10.4146 0.245117 11.3385C0.245117 13.3636 0.316993 15.3697 0.468732 17.3632C0.588527 18.9896 2.21772 20.2932 4.27019 20.4008C6.85771 20.5401 9.47721 20.616 12.1047 20.635C12.3523 20.635 12.5519 20.4768 12.5519 20.2806V16.3633C12.5519 16.1924 12.3922 16.0405 12.1845 16.0152C10.6991 15.819 9.35742 15.2748 8.31122 14.4901C7.90391 14.18 7.53655 13.8256 7.2171 13.4395C5.97924 11.946 5.71567 10.1804 6.29868 8.64894C6.47438 8.19331 7.0414 7.89586 7.64037 7.95281C9.64491 8.14266 11.5776 9.04132 12.8075 10.5348C13.3026 11.136 13.646 11.7878 13.8377 12.4397C14.1172 12.1359 14.4447 11.8511 14.828 11.598C16.2016 10.693 17.9266 10.3829 19.4919 10.6361C19.8753 10.6994 20.1548 10.9652 20.1628 11.2752C20.1867 12.4207 19.6197 13.5851 18.4937 14.4711C17.4395 15.2621 16.0978 15.8127 14.6044 16.0026C14.3887 16.0279 14.237 16.1798 14.237 16.3506V20.2679C14.237 20.4641 14.4367 20.6223 14.6922 20.6223C17.112 20.597 19.5159 20.5211 21.9038 20.3945C23.9562 20.2806 25.5775 18.9832 25.7052 17.3569C25.857 15.3634 25.9289 13.3573 25.9289 11.3322C25.9209 10.4146 25.9049 9.49694 25.8729 8.58566Z" fill="url(#paint0_linear_1_197)"/>
</g>
<defs>
<linearGradient id="paint0_linear_1_197" x1="11.1358" y1="-1.93477" x2="13.9308" y2="30.6328" gradientUnits="userSpaceOnUse">
<stop offset="0.223" stop-color="#43E7B0"/>
<stop offset="0.9439" stop-color="#4386F5"/>
</linearGradient>
<clipPath id="clip0_1_197">
<rect width="82.5457" height="20.1481" fill="white" transform="translate(0.245117 0.703613)"/>
</clipPath>
</defs>
</svg>
