<svg width="92" height="16" viewBox="0 0 92 16" fill="none" xmlns="http://www.w3.org/2000/svg">
<g clip-path="url(#clip0_1_26)">
<path d="M28.9621 8.22256C29.3108 7.72998 29.4854 7.14372 29.4854 6.46341C29.4854 6.0046 29.4061 5.58544 29.2476 5.20555C29.0891 4.82596 28.8502 4.51156 28.5311 4.26234C28.2121 4.01317 27.8147 3.85104 27.339 3.77581C27.2279 3.75602 27.111 3.74307 26.9882 3.73726C26.8652 3.73121 26.762 3.7283 26.6789 3.7283H23.2183V12.2716H24.4612V9.2042H26.7349L28.2248 12.2716H29.646L28.028 8.95982C28.4166 8.79587 28.7292 8.55137 28.9621 8.22256ZM24.4611 4.89726H26.6313C26.7107 4.89726 26.7988 4.90119 26.8959 4.90912C26.993 4.91705 27.0853 4.9329 27.1724 4.95639C27.4261 5.01576 27.6303 5.1256 27.7848 5.2858C27.9396 5.44606 28.0504 5.62974 28.1179 5.8375C28.1851 6.04527 28.2189 6.25382 28.2189 6.46341C28.2189 6.67299 28.1851 6.88257 28.1179 7.09222C28.0504 7.30204 27.9396 7.48687 27.7848 7.64707C27.6303 7.80733 27.4261 7.91687 27.1724 7.97624C27.0853 7.99603 26.993 8.01001 26.8959 8.01794C26.7988 8.02587 26.7107 8.02956 26.6313 8.02956H24.4611V4.89726Z" fill="#090E24"/>
<path d="M35.1163 6.14006C34.6562 5.83752 34.0993 5.68628 33.4453 5.68628C32.8191 5.68628 32.2701 5.82669 31.7984 6.10756C31.3265 6.38844 30.959 6.7857 30.6955 7.29994C30.4317 7.81418 30.3 8.42132 30.3 9.12136C30.3 9.78183 30.4338 10.3623 30.7013 10.8625C30.9688 11.363 31.3434 11.7524 31.8252 12.0314C32.3067 12.3102 32.8665 12.4496 33.5049 12.4496C34.1271 12.4496 34.6919 12.2925 35.1994 11.9779C35.7068 11.6635 36.0854 11.2197 36.3351 10.6461L35.1163 10.2605C34.9575 10.5889 34.7366 10.8409 34.4532 11.0171C34.1696 11.1929 33.8337 11.281 33.4453 11.281C32.8545 11.281 32.4027 11.0881 32.0897 10.7024C31.8308 10.3838 31.6806 9.95449 31.6357 9.41816H36.4184C36.4657 8.65076 36.3755 7.98818 36.1477 7.43066C35.9197 6.87291 35.576 6.4426 35.1163 6.14006ZM32.0897 7.37123C32.4027 6.97948 32.8707 6.78388 33.4929 6.78388C34.0557 6.78388 34.475 6.96181 34.7504 7.31767C34.9578 7.58566 35.0892 7.96349 35.1449 8.45092H31.664C31.7298 8.0064 31.8705 7.64521 32.0897 7.37123Z" fill="#090E24"/>
<path d="M42.3347 6.90849C42.1363 6.48533 41.8244 6.17571 41.3982 5.9798C40.972 5.7842 40.4714 5.68628 39.8968 5.68628C39.1555 5.68628 38.5621 5.84835 38.1161 6.1728C37.67 6.49725 37.3679 6.93409 37.2094 7.48398L38.3687 7.83984C38.4796 7.48005 38.6758 7.22187 38.9573 7.0656C39.2388 6.90958 39.5481 6.83145 39.8849 6.83145C40.4201 6.83145 40.7976 6.95285 41.0177 7.19627C41.2095 7.40839 41.3147 7.71959 41.333 8.12901C41.0895 8.1632 40.847 8.1974 40.6012 8.23159C40.2031 8.28703 39.8234 8.34616 39.4626 8.40952C39.102 8.47289 38.779 8.546 38.4935 8.62885C38.1644 8.73579 37.8872 8.87517 37.6612 9.04729C37.4353 9.21941 37.2647 9.42796 37.1499 9.67319C37.0348 9.91842 36.9774 10.2032 36.9774 10.5274C36.9774 10.8756 37.0596 11.195 37.2242 11.4857C37.3885 11.7763 37.6313 12.0099 37.9525 12.1857C38.2737 12.3618 38.6718 12.4497 39.1475 12.4497C39.7462 12.4497 40.2504 12.3301 40.6607 12.0909C40.968 11.9117 41.2345 11.6621 41.4605 11.3422V12.2718H42.5606V8.32637C42.5606 8.05735 42.5487 7.80631 42.5248 7.57295C42.5011 7.33958 42.4377 7.11807 42.3347 6.90849ZM41.1932 10.1654C41.1456 10.3752 41.0445 10.5769 40.8897 10.7707C40.7352 10.9645 40.531 11.1237 40.2775 11.2482C40.0236 11.3729 39.7204 11.4351 39.3677 11.4351C39.1021 11.4351 38.8841 11.3937 38.7138 11.3105C38.5431 11.2274 38.4164 11.1157 38.333 10.9753C38.2499 10.8351 38.2081 10.6818 38.2081 10.5155C38.2081 10.3455 38.2468 10.2011 38.3243 10.0826C38.4016 9.96375 38.5066 9.86292 38.6394 9.78001C38.7722 9.69685 38.9238 9.62556 39.0942 9.56619C39.2963 9.50313 39.5272 9.44872 39.7868 9.40309C40.0466 9.3577 40.3368 9.31122 40.658 9.26371C40.8638 9.23327 41.0859 9.2001 41.3209 9.16482C41.3185 9.26976 41.3146 9.3885 41.309 9.5248C41.2989 9.7621 41.2603 9.97561 41.1932 10.1654Z" fill="#090E24"/>
<path d="M45.1705 3.55045H43.9279V12.2717H45.1705V3.55045Z" fill="#090E24"/>
<path d="M48.845 3.72836L46.0623 12.2717H47.3526L47.979 10.3436H51.4933L52.1271 12.2717H53.4173L50.6347 3.72836H48.845ZM48.3568 9.18078L49.7259 4.96692L51.1111 9.18078H48.3568Z" fill="#090E24"/>
<path d="M58.3643 8.97593C58.0471 8.80805 57.619 8.65469 57.0799 8.5161C56.5765 8.38967 56.196 8.28092 55.9383 8.18983C55.6807 8.09905 55.5074 8.00397 55.4182 7.90527C55.3288 7.80625 55.2844 7.68564 55.2844 7.54335C55.2844 7.29812 55.4013 7.10512 55.6352 6.96472C55.8691 6.82455 56.1741 6.76221 56.5508 6.77783C56.9431 6.79368 57.2622 6.89058 57.508 7.06875C57.7538 7.24668 57.8985 7.48979 57.9421 7.79839L59.2147 7.5669C59.1671 7.18731 59.0245 6.85602 58.7866 6.57327C58.5488 6.29058 58.2374 6.07198 57.853 5.91753C57.4686 5.76338 57.0305 5.68628 56.5389 5.68628C56.0354 5.68628 55.5965 5.76544 55.2219 5.92358C54.8473 6.08172 54.5569 6.30528 54.3508 6.59409C54.1447 6.88259 54.0418 7.22102 54.0418 7.60853C54.0418 7.92106 54.11 8.18693 54.2468 8.40656C54.3836 8.62588 54.6135 8.81785 54.9365 8.98205C55.2595 9.14624 55.6966 9.29936 56.2477 9.44164C56.7508 9.5763 57.1254 9.68899 57.3715 9.78007C57.617 9.87085 57.7787 9.96696 57.8559 10.0678C57.9332 10.1686 57.9718 10.3001 57.9718 10.4622C57.9718 10.7391 57.862 10.9567 57.6419 11.1147C57.4221 11.2731 57.1176 11.352 56.7292 11.352C56.3012 11.352 55.9434 11.2562 55.6562 11.0643C55.3686 10.8726 55.1852 10.6105 55.1062 10.2782L53.8336 10.4741C53.9445 11.0992 54.2458 11.5836 54.7374 11.9276C55.2289 12.2718 55.8652 12.4439 56.6462 12.4439C57.4586 12.4439 58.0959 12.2639 58.5576 11.9041C59.0195 11.544 59.2505 11.0477 59.2505 10.4147C59.2505 10.0866 59.1819 9.80682 59.0451 9.57533C58.9084 9.34408 58.6813 9.14406 58.3643 8.97593Z" fill="#090E24"/>
<path d="M64.4412 8.97593C64.124 8.80805 63.696 8.65469 63.1568 8.5161C62.6533 8.38967 62.2729 8.28092 62.0152 8.18983C61.7576 8.09905 61.5843 8.00397 61.4951 7.90527C61.4057 7.80625 61.3613 7.68564 61.3613 7.54335C61.3613 7.29812 61.4782 7.10512 61.7121 6.96472C61.946 6.82455 62.251 6.76221 62.6277 6.77783C63.0201 6.79368 63.3391 6.89058 63.5849 7.06875C63.8307 7.24668 63.9754 7.48979 64.0191 7.79839L65.2916 7.5669C65.244 7.18731 65.1014 6.85602 64.8636 6.57327C64.6257 6.29058 64.3143 6.07198 63.9299 5.91753C63.5455 5.76338 63.1074 5.68628 62.6158 5.68628C62.1124 5.68628 61.6735 5.76544 61.2989 5.92358C60.9243 6.08172 60.6337 6.30528 60.4277 6.59409C60.2216 6.88259 60.1187 7.22102 60.1187 7.60853C60.1187 7.92106 60.1869 8.18693 60.3237 8.40656C60.4604 8.62588 60.6903 8.81785 61.0134 8.98205C61.3364 9.14624 61.7734 9.29936 62.3245 9.44164C62.8277 9.5763 63.2023 9.68899 63.4484 9.78007C63.6939 9.87085 63.8555 9.96696 63.9328 10.0678C64.01 10.1686 64.0486 10.3001 64.0486 10.4622C64.0486 10.7391 63.9388 10.9567 63.7187 11.1147C63.4988 11.2731 63.1944 11.352 62.806 11.352C62.378 11.352 62.0202 11.2562 61.733 11.0643C61.4454 10.8726 61.262 10.6105 61.1829 10.2782L59.9104 10.4741C60.0213 11.0992 60.3226 11.5836 60.8142 11.9276C61.3057 12.2718 61.942 12.4439 62.723 12.4439C63.5354 12.4439 64.1727 12.2639 64.6344 11.9041C65.0963 11.544 65.3273 11.0477 65.3273 10.4147C65.3273 10.0866 65.2588 9.80682 65.122 9.57533C64.9852 9.34408 64.7582 9.14406 64.4412 8.97593Z" fill="#090E24"/>
<path d="M67.7053 5.8642H66.4627V12.2717H67.7053V5.8642Z" fill="#090E24"/>
<path d="M67.7053 3.6098H66.4627V4.81404H67.7053V3.6098Z" fill="#090E24"/>
<path d="M73.3658 8.97593C73.0486 8.80805 72.6206 8.65469 72.0814 8.5161C71.5779 8.38967 71.1975 8.28092 70.9399 8.18983C70.6822 8.09905 70.5089 8.00397 70.4198 7.90527C70.3304 7.80625 70.2859 7.68564 70.2859 7.54335C70.2859 7.29812 70.4028 7.10512 70.6367 6.96472C70.8706 6.82455 71.1756 6.76221 71.5523 6.77783C71.9447 6.79368 72.2638 6.89058 72.5095 7.06875C72.7553 7.24668 72.9 7.48979 72.9437 7.79839L74.2162 7.5669C74.1686 7.18731 74.026 6.85602 73.7882 6.57327C73.5504 6.29058 73.2389 6.07198 72.8545 5.91753C72.4701 5.76338 72.032 5.68628 71.5405 5.68628C71.037 5.68628 70.5981 5.76544 70.2235 5.92358C69.8489 6.08172 69.5584 6.30528 69.3523 6.59409C69.1462 6.88259 69.0433 7.22102 69.0433 7.60853C69.0433 7.92106 69.1116 8.18693 69.2483 8.40656C69.3851 8.62588 69.615 8.81785 69.938 8.98205C70.2611 9.14624 70.6981 9.29936 71.2492 9.44164C71.7524 9.5763 72.127 9.68899 72.3731 9.78007C72.6186 9.87085 72.7802 9.96696 72.8574 10.0678C72.9347 10.1686 72.9733 10.3001 72.9733 10.4622C72.9733 10.7391 72.8636 10.9567 72.6434 11.1147C72.4236 11.2731 72.1191 11.352 71.7307 11.352C71.3027 11.352 70.945 11.2562 70.6577 11.0643C70.3701 10.8726 70.1868 10.6105 70.1077 10.2782L68.8352 10.4741C68.946 11.0992 69.2474 11.5836 69.7389 11.9276C70.2305 12.2718 70.8667 12.4439 71.6477 12.4439C72.4602 12.4439 73.0974 12.2639 73.5591 11.9041C74.0211 11.544 74.252 11.0477 74.252 10.4147C74.252 10.0866 74.1835 9.80682 74.0467 9.57533C73.9099 9.34408 73.6828 9.14406 73.3658 8.97593Z" fill="#090E24"/>
<path d="M77.0344 4.08447H75.7857V5.8642H74.5548V6.86097H75.7857V9.75023C75.7857 10.0984 75.7905 10.4099 75.8005 10.6847C75.8103 10.9598 75.8847 11.2296 76.0236 11.4946C76.178 11.7913 76.408 12.0089 76.7133 12.1471C77.0183 12.2855 77.3651 12.3607 77.7538 12.3726C78.1421 12.3844 78.5387 12.3509 78.943 12.2718V11.2217C78.5228 11.281 78.1569 11.294 77.8458 11.2602C77.5348 11.2267 77.3077 11.0873 77.1651 10.8421C77.0897 10.7114 77.0493 10.5512 77.0432 10.3614C77.0373 10.1716 77.0344 9.94825 77.0344 9.69086V6.86103H78.943V5.86426H77.0344V4.08447Z" fill="#090E24"/>
<path d="M81.5237 10.9605H80.2097V12.2717H81.5237V10.9605Z" fill="#090E24"/>
<path d="M85.2932 3.72836L82.5106 12.2717H83.8008L84.4272 10.3436H87.9415L88.5753 12.2717H89.8655L87.0829 3.72836H85.2932ZM84.805 9.18078L86.1742 4.96692L87.5593 9.18078H84.805Z" fill="#090E24"/>
<path d="M92 3.72836H90.7574V12.2717H92V3.72836Z" fill="#090E24"/>
<path d="M8.46711 1.16181C8.46711 1.80345 7.94579 2.32363 7.30273 2.32363H3.39419C2.86535 2.32363 2.43671 2.75139 2.43671 3.279V8.69844C2.43671 9.36985 1.89125 9.91411 1.21836 9.91411C0.545461 9.91411 0 9.36985 0 8.69844V2.90553C0 1.30083 1.3037 0 2.91193 0H7.30267C7.94572 0 8.46711 0.520174 8.46711 1.16181Z" fill="#1463FF"/>
<path d="M15.0205 5.92441V15.5701C15.0205 15.8747 14.7115 16.0825 14.4285 15.9682L11.0526 14.6047C10.9272 14.5651 10.7966 14.545 10.6651 14.545H6.13344C5.42427 14.545 4.8494 13.9713 4.8494 13.2637V5.92441C4.8494 5.2168 5.42427 4.64319 6.13344 4.64319H13.7364C14.4456 4.64319 15.0205 5.2168 15.0205 5.92441Z" fill="#1463FF"/>
</g>
<defs>
<clipPath id="clip0_1_26">
<rect width="92" height="16" fill="white"/>
</clipPath>
</defs>
</svg>
